<?xml version="1.0" encoding="utf-8"?>
<!-- Generator: Adobe Illustrator 28.1.0, SVG Export Plug-In . SVG Version: 6.00 Build 0)  -->
<svg version="1.1" id="Capa_1" xmlns="http://www.w3.org/2000/svg" xmlns:xlink="http://www.w3.org/1999/xlink" x="0px" y="0px"
	 viewBox="0 0 995.7 602.3" style="enable-background:new 0 0 995.7 602.3;" xml:space="preserve">
<style type="text/css">
	.st0{fill:#FFFFFF;}
</style>
<g>
	<g>
		<path class="st0" d="M74.3,172c-0.3,20-0.2,40,0,59.9c0.2,12.5,0.5,25,0.9,37.6c-21.9,13.4-38.6,28.6-54.1,49.1
			c-0.4-13.2-0.7-26.3-1-39.5c-1.3-60.6-5.3-127.5,14.1-186c3.1-9.6,4.9-14,9.2-21.8c20.5-28.4,46.8-39,80.8-43.3
			c33.7-3.2,83.6,6.4,76.9,50.5c-6.8,45.1-45,70.6-86.9,80.2C100.5,162.2,87.1,166.1,74.3,172z M76.9,114c8.6-3.4,13.1-4.8,22.3-7.1
			c13.4-3.2,24.7-11.1,26.9-25.3c2.3-14.4-10.6-17.1-21.8-14.7c-9.2,1.8-13.7,3-22.1,6C79.6,86.4,78.2,100.2,76.9,114z"/>
		<path class="st0" d="M211.5,113.7c7.5-69.9,67.8-71.4,120.9-91.5c12-4.6,22.2-11.2,33.2-17.7c13-7.8,13-5.4,22.4,7
			c16.6,22,27.1,46.9,27.3,74.8c0.2,28.9-9.6,58.2-28.7,80.2c-20.1,23.1-42,49.8-73.2,56.9C247.5,238.4,205.1,173.1,211.5,113.7z
			 M348.5,92.7c0.8-13.3,5.4-51.6-19.4-43c-24.1,8.4-29.3,35.4-31.6,58c-1.3,12.8-7.8,67.7,20.7,59.6
			C344.9,159.6,347.2,114.2,348.5,92.7z"/>
		<path class="st0" d="M632.9,109.2C606.8,93,578,80.1,548.7,72.3c-5.7-1.5-34.1-7.7-33.5,0.4c1.1,15.3,54.4,27.7,71.5,34
			c36.8,13.5,106.7,39.2,100.6,89.3c-7.8,64.3-100.9,57.4-144,46.7c-43.6-10.9-89.5-31.9-118.3-69.1c11.7-12,24-23.6,37-34.3
			c23.7,23.9,50.6,40.5,82.7,49.8c9.6,2.8,37.8,6.9,38.4-6.8c0.9-20.6-54.5-33.7-71.4-40.8c-35.8-15-76.6-40.6-80.1-83.3
			c-4.3-52.9,74.9-20.2,99-13.2c48.8,14.3,99.2,29.2,145,51.8C661.1,100.1,647.1,104.3,632.9,109.2z"/>
		<path class="st0" d="M882.1,169.4c5,41-9.7,84.6-20.8,123.4c-2.9,10.3-5.9,20.6-8.9,30.9c-32.3-10.5-64.8-20.5-97.3-30.1
			c2.6-10.2,5.2-20.3,7.6-30.5c8.8-39.3,20.2-82.4,14.7-123.1c-26.9-7.3-53.9-14.5-80.8-21.7c-2.3-10.1-4.4-20.2-11.2-28.5
			c84.1,22.7,168.6,44.8,251.4,72.1c8.6,7.7,10.9,18.1,13.5,28.7C927.6,183.1,904.9,176.2,882.1,169.4z"/>
		<path class="st0" d="M9.5,579.9c18.8-59,15.5-124.9,14.1-186c-0.4-13-0.9-26-1.4-38.9c19.3-25.9,41.9-44.8,70.4-59.7
			c9.4,35.4,18.5,70.8,27.2,106.4c0.2-0.1,0.3-0.2,0.5-0.3c11.7-42.3,22.3-85,33.7-127.4c31.1-7.1,62.5-11.6,94-16.2
			c-0.9,10.8-1.8,21.5-2.8,32.3c-3.9,48.9-6.6,98.9-16.5,147c-1.3,6.9-2,9.9-3.5,15c-24.7,6.9-48.3,15.3-71.8,25.7
			c2.4-5.9,3.5-9.3,5.6-17.1c5.4-21.6,7.6-44,9.8-66.1c1-8.4,1.4-12.7,2.3-21.6c-0.2,0.1-0.3,0.1-0.6,0.2
			c-13.6,42.1-27.4,87.4-53.5,123.7c-13.5,7.9-26.5,16.8-38.9,26.3c0.1-31.5-7.4-63.4-13.5-94.2c-0.2,0.2-0.3,0.2-0.5,0.4
			c-0.1,9.8-0.2,14.6-0.6,23.9c-1.7,25.9-3.9,52-10.8,77.1c-2.5,9.2-3.9,13.4-7.3,20.7C29,567.2,14.1,584.1,0,602.2
			C4.4,594.3,6.3,589.8,9.5,579.9z"/>
		<path class="st0" d="M260.9,369c3.2-31.8,16.5-63.1,35.7-88.6c14.9-19.7,52.1-60.8,76.4-58.8c59.6,4.8,107.5,84.1,109.4,145.3
			c2.2,68.1-60.5,69.6-112.9,69.8c-26.8,0.1-62.8,3.5-87.6-10.1C260.9,415,258.7,390.6,260.9,369z M394.2,352.6
			c0.1-18.7,3.1-67.9-24.4-71.8c-25-3.5-28.4,59.6-29,73.2c-1.1,21.9-2.5,51.4,26,52.1C395,406.8,394.1,372.6,394.2,352.6z"/>
		<path class="st0" d="M663.8,481.4c-20.3-15.7-33.4-33.9-45.6-56.4c-8.5-2.3-12.8-3.5-21.3-5.7c1.1,11.6,2.2,23,6.1,34.1
			c2.4,6.5,3.9,9.3,7.5,13.9c-29-7.1-58.1-13.3-87.5-18.7c-2.8-4.8-4-7.7-6-14.4c-13.6-45.1-7.5-97.4-4.8-143.6
			c0.5-10.6,1.1-21.2,1.7-31.7c47.6,11.5,95,23.8,142.2,36.7c47.3,13.2,105.1,45.9,93.3,103.7c-4.9,24.3-22,40.2-47.1,41.5
			c14.9,28.3,31.9,51.6,57.9,70.6c0.1,0.1,0.1,0.1,0.2,0.2C728.4,500.9,696.2,490.7,663.8,481.4z M597.2,375
			c10.1,2.7,20.3,5.4,30.4,8.3c11.3,3.3,29.5,5.5,31.6-10.3c2.2-16.5-15.1-25.4-28.6-28.6c-10-2.8-20-5.5-30.1-8.1
			C599.1,349.1,598,362,597.2,375z"/>
		<path class="st0" d="M952.9,470.4c-13.7-21.7-29.9-36.6-53.2-46.9c-9.4-4.2-30.8-8.5-34.7,4.1c-5.5,17.7,39.5,34.9,51.2,42
			c33.7,20.5,59.4,52.9,64.4,93c6,48.7-65.5,8-85.7,0C850.3,545,803.1,528,763,501.2c11.8-3.2,23.3-7.4,34.7-12
			c23.7,20.4,51.2,37.3,80,48.1c8.2,3.1,28.1,8.9,28.9,2.2c1.5-13.1-44.5-31.7-61.4-40.5c-32.1-16.8-80.4-45-70.6-88.6
			c13.5-60.6,92.6-57.8,136.2-41.7c34.6,12.7,68.7,37.3,85,73C981.7,451.6,967.4,461.1,952.9,470.4z"/>
	</g>
</g>
</svg>
